<?xml version="1.0" encoding="UTF-8" standalone="no"?>
<!-- Created with Inkscape (http://www.inkscape.org/) -->

<svg
   width="150"
   height="42"
   viewBox="0 0 39.687499 11.1125"
   version="1.1"
   id="svg53720"
   inkscape:version="1.1 (c68e22c387, 2021-05-23)"
   sodipodi:docname="sip-relay.svg"
   xmlns:inkscape="http://www.inkscape.org/namespaces/inkscape"
   xmlns:sodipodi="http://sodipodi.sourceforge.net/DTD/sodipodi-0.dtd"
   xmlns="http://www.w3.org/2000/svg"
   xmlns:svg="http://www.w3.org/2000/svg">
  <sodipodi:namedview
     id="namedview53722"
     pagecolor="#ffffff"
     bordercolor="#666666"
     borderopacity="1.0"
     inkscape:pageshadow="2"
     inkscape:pageopacity="0.0"
     inkscape:pagecheckerboard="0"
     inkscape:document-units="mm"
     showgrid="false"
     units="px"
     inkscape:zoom="6.2217172"
     inkscape:cx="56.174203"
     inkscape:cy="25.796737"
     inkscape:window-width="2560"
     inkscape:window-height="1377"
     inkscape:window-x="-8"
     inkscape:window-y="-8"
     inkscape:window-maximized="1"
     inkscape:current-layer="layer1" />
  <defs
     id="defs53717" />
  <g
     inkscape:label="Layer 1"
     inkscape:groupmode="layer"
     id="layer1">
    <g
       aria-label="Sip|Relay"
       id="text4-8"
       style="font-weight:bold;font-size:5.1594px;line-height:1.25;font-family:Metropolis;fill:#212529;stroke-width:0.42515"
       transform="matrix(1.6309366,0,0,1.6299459,-77.040466,-64.898258)">
      <path
         d="m 49.250351,44.747082 c 0.866779,0 1.377559,-0.448868 1.377559,-1.124749 0,-0.655244 -0.505621,-0.882258 -1.269212,-1.052518 -0.546896,-0.123825 -0.758432,-0.206376 -0.758432,-0.464346 0,-0.211535 0.196057,-0.381795 0.5211,-0.381795 0.34052,0 0.696519,0.139303 1.011242,0.392114 l 0.397274,-0.546896 c -0.361158,-0.309564 -0.810026,-0.490143 -1.387879,-0.490143 -0.77391,0 -1.310487,0.448867 -1.310487,1.104111 0,0.6862 0.531418,0.897736 1.279531,1.067996 0.541737,0.123826 0.748113,0.201217 0.748113,0.454027 0,0.221854 -0.196057,0.397274 -0.577853,0.397274 -0.448868,0 -0.830663,-0.17542 -1.166024,-0.464346 l -0.438549,0.521099 c 0.412752,0.381796 0.959648,0.588172 1.573617,0.588172 z"
         id="path51332" />
      <path
         d="m 51.530802,41.651442 c 0.221855,0 0.402434,-0.185738 0.402434,-0.412752 0,-0.211535 -0.180579,-0.402433 -0.402434,-0.402433 -0.232173,0 -0.412752,0.190898 -0.412752,0.402433 0,0.227014 0.180579,0.412752 0.412752,0.412752 z m -0.381795,3.033727 h 0.753272 v -2.66741 h -0.753272 z"
         id="path51334" />
      <path
         d="m 54.203368,41.955847 c -0.371477,0 -0.681041,0.159941 -0.892576,0.433389 v -0.371477 h -0.753273 v 3.554827 h 0.753273 v -1.264053 c 0.211535,0.278608 0.521099,0.438549 0.892576,0.438549 0.711997,0 1.227937,-0.577853 1.227937,-1.398197 0,-0.815186 -0.51594,-1.393038 -1.227937,-1.393038 z m -0.216695,2.156629 c -0.366317,0 -0.634606,-0.268289 -0.675881,-0.660403 v -0.206376 c 0.04127,-0.386955 0.309564,-0.655244 0.675881,-0.655244 0.417912,0 0.711997,0.314723 0.711997,0.758432 0,0.448867 -0.294085,0.763591 -0.711997,0.763591 z"
         id="path51336" />
      <path
         d="m 56.143301,45.066965 h 0.5211 v -4.21523 h -0.5211 z"
         id="path51338"
         style="fill:#22b99a;fill-opacity:1" />
      <path
         d="m 60.523631,44.685169 -0.871939,-1.238256 c 0.484984,-0.17026 0.804867,-0.583012 0.804867,-1.109271 0,-0.701678 -0.567534,-1.196981 -1.336285,-1.196981 H 57.52602 v 3.544508 h 0.758431 v -1.150546 h 0.562375 l 0.810026,1.150546 z m -2.23918,-2.847989 h 0.753273 c 0.376636,0 0.634606,0.196058 0.634606,0.500462 0,0.304405 -0.25797,0.500462 -0.634606,0.500462 h -0.753273 z"
         id="path51340" />
      <path
         d="m 62.262346,44.081519 c -0.314723,0 -0.546896,-0.196057 -0.634606,-0.484983 h 1.924456 c 0,-1.006083 -0.490143,-1.640689 -1.325965,-1.640689 -0.77907,0 -1.372401,0.583012 -1.372401,1.387878 0,0.820345 0.619128,1.403357 1.413676,1.403357 0.392114,0 0.851301,-0.165101 1.088633,-0.412752 l -0.479824,-0.490143 c -0.144463,0.139304 -0.402433,0.237332 -0.613969,0.237332 z m -0.0052,-1.46011 c 0.304405,0 0.500462,0.17026 0.572693,0.43339 h -1.191821 c 0.09803,-0.268289 0.335361,-0.43339 0.619128,-0.43339 z"
         id="path51342" />
      <path
         d="m 64.062969,44.685169 h 0.753272 v -3.60642 h -0.753272 z"
         id="path51344" />
      <path
         d="m 66.6633,41.955847 c -0.371476,0 -0.737794,0.103188 -1.11443,0.294085 l 0.252811,0.500462 c 0.211535,-0.108347 0.443708,-0.190898 0.691359,-0.190898 0.438549,0 0.613969,0.247652 0.613969,0.531419 v 0.05159 c -0.227014,-0.08771 -0.464346,-0.134145 -0.681041,-0.134145 -0.619128,0 -1.109271,0.361158 -1.109271,0.887417 0,0.510781 0.438549,0.851301 1.006083,0.851301 0.288926,0 0.593331,-0.113507 0.784229,-0.330202 v 0.268289 h 0.727475 v -1.594254 c 0,-0.696519 -0.474665,-1.135068 -1.171184,-1.135068 z m -0.17026,2.270136 c -0.25797,0 -0.448868,-0.134145 -0.448868,-0.35084 0,-0.216694 0.216695,-0.376636 0.490143,-0.376636 0.206376,0 0.402434,0.03612 0.572694,0.09803 v 0.247651 c -0.05159,0.247651 -0.325042,0.381796 -0.613969,0.381796 z"
         id="path51346" />
      <path
         d="m 69.077896,45.613861 c 0.417912,0 0.758432,-0.273448 0.959649,-0.794547 l 1.093792,-2.801555 h -0.76875 l -0.665563,1.872863 -0.701678,-1.872863 h -0.77907 l 1.109271,2.693207 -0.09287,0.196057 c -0.05675,0.09803 -0.17026,0.144464 -0.314723,0.144464 -0.08771,0 -0.221854,-0.04644 -0.350839,-0.118667 l -0.159942,0.51594 c 0.180579,0.09803 0.448868,0.165101 0.670722,0.165101 z"
         id="path51348" />
    </g>
  </g>
</svg>
